<?xml version="1.0" encoding="iso-8859-1"?>
<!-- Uploaded to: SVG Repo, www.svgrepo.com, Generator: SVG Repo Mixer Tools -->
<svg version="1.1" id="Layer_1" xmlns="http://www.w3.org/2000/svg" xmlns:xlink="http://www.w3.org/1999/xlink" 
	 viewBox="0 0 451.277 451.277" xml:space="preserve">
<circle style="fill:#EA8953;" cx="225.638" cy="225.638" r="225.638"/>
<path style="opacity:0.1;enable-background:new    ;" d="M451.006,237.094L313.908,99.996c-0.508-0.671-1.102-1.265-1.773-1.773
	l-0.001,0c-1.527-1.156-3.409-1.867-5.472-1.867H144.615c-5.034,0-9.114,4.08-9.114,9.114v7.162v226.015v7.161
	c0,3.108,1.561,5.845,3.936,7.49l97.708,97.708C352.631,445.204,445.231,352.586,451.006,237.094z"/>
<path style="fill:#2F4859;" d="M306.662,103.517H144.615c-5.034,0-9.114,4.08-9.114,9.114v233.176c0,5.034,4.08,9.114,9.114,9.114
	h162.048c5.034,0,9.114-4.081,9.114-9.114V112.631C315.776,107.597,311.696,103.517,306.662,103.517z"/>
<path style="fill:#64798A;" d="M306.662,96.355H144.615c-5.034,0-9.114,4.08-9.114,9.114v233.177c0,5.034,4.08,9.114,9.114,9.114
	h162.048c5.034,0,9.114-4.08,9.114-9.114V105.469C315.776,100.436,311.696,96.355,306.662,96.355z"/>
<rect x="151.014" y="120.945" style="fill:#EBF0F3;" width="149.248" height="64.563"/>
<rect x="151.014" y="173.42" style="fill:#E1E6E9;" width="149.248" height="12.093"/>
<circle style="fill:#EBF0F3;" cx="166.492" cy="222.259" r="11.812"/>
<path style="fill:#D5D6DB;" d="M166.492,210.443c-0.149,0-0.287,0.038-0.434,0.044c5.839,0.233,10.51,5.004,10.51,10.901
	c0,6.044-4.9,10.944-10.944,10.944c-5.896,0-10.668-4.672-10.901-10.51c-0.005,0.147-0.044,0.285-0.044,0.434
	c0,6.524,5.289,11.813,11.813,11.813c6.524,0,11.813-5.289,11.813-11.813C178.305,215.731,173.015,210.443,166.492,210.443z"/>
<circle style="fill:#EBF0F3;" cx="205.926" cy="222.259" r="11.812"/>
<path style="fill:#D5D6DB;" d="M205.923,210.443c-0.149,0-0.287,0.038-0.434,0.044c5.839,0.233,10.51,5.004,10.51,10.901
	c0,6.044-4.9,10.944-10.944,10.944c-5.896,0-10.668-4.672-10.901-10.51c-0.005,0.147-0.044,0.285-0.044,0.434
	c0,6.524,5.289,11.813,11.813,11.813c6.524,0,11.813-5.289,11.813-11.813C217.736,215.731,212.447,210.443,205.923,210.443z"/>
<circle style="fill:#EBF0F3;" cx="245.356" cy="222.259" r="11.812"/>
<path style="fill:#D5D6DB;" d="M245.354,210.443c-0.149,0-0.287,0.038-0.434,0.044c5.839,0.233,10.51,5.004,10.51,10.901
	c0,6.044-4.9,10.944-10.944,10.944c-5.896,0-10.668-4.672-10.901-10.51c-0.005,0.147-0.044,0.285-0.044,0.434
	c0,6.524,5.289,11.813,11.813,11.813c6.524,0,11.813-5.289,11.813-11.813C257.167,215.731,251.878,210.443,245.354,210.443z"/>
<circle style="fill:#E56353;" cx="284.774" cy="222.259" r="11.812"/>
<path style="fill:#D15241;" d="M284.786,210.443c-0.149,0-0.287,0.038-0.434,0.044c5.839,0.233,10.51,5.004,10.51,10.901
	c0,6.044-4.9,10.944-10.944,10.944c-5.896,0-10.668-4.672-10.901-10.51c-0.005,0.147-0.044,0.285-0.044,0.434
	c0,6.524,5.289,11.813,11.813,11.813c6.524,0,11.813-5.289,11.813-11.813C296.599,215.731,291.309,210.443,284.786,210.443z"/>
<circle style="fill:#EBF0F3;" cx="166.492" cy="255.15" r="11.812"/>
<path style="fill:#D5D6DB;" d="M166.492,243.338c-0.149,0-0.287,0.039-0.434,0.044c5.839,0.233,10.51,5.005,10.51,10.901
	c0,6.044-4.9,10.945-10.944,10.945c-5.896,0-10.668-4.672-10.901-10.51c-0.005,0.148-0.044,0.286-0.044,0.434
	c0,6.524,5.289,11.813,11.813,11.813c6.524,0,11.813-5.289,11.813-11.813C178.305,248.627,173.015,243.338,166.492,243.338z"/>
<circle style="fill:#EBF0F3;" cx="205.926" cy="255.15" r="11.812"/>
<path style="fill:#D5D6DB;" d="M205.923,243.338c-0.149,0-0.287,0.039-0.434,0.044c5.839,0.233,10.51,5.005,10.51,10.901
	c0,6.044-4.9,10.945-10.944,10.945c-5.896,0-10.668-4.672-10.901-10.51c-0.005,0.148-0.044,0.286-0.044,0.434
	c0,6.524,5.289,11.813,11.813,11.813c6.524,0,11.813-5.289,11.813-11.813C217.736,248.627,212.447,243.338,205.923,243.338z"/>
<circle style="fill:#EBF0F3;" cx="245.356" cy="255.15" r="11.812"/>
<path style="fill:#D5D6DB;" d="M245.354,243.338c-0.149,0-0.287,0.039-0.434,0.044c5.839,0.233,10.51,5.005,10.51,10.901
	c0,6.044-4.9,10.945-10.944,10.945c-5.896,0-10.668-4.672-10.901-10.51c-0.005,0.148-0.044,0.286-0.044,0.434
	c0,6.524,5.289,11.813,11.813,11.813c6.524,0,11.813-5.289,11.813-11.813C257.167,248.627,251.878,243.338,245.354,243.338z"/>
<circle style="fill:#FCD462;" cx="284.774" cy="255.15" r="11.812"/>
<path style="fill:#F6C358;" d="M284.786,243.338c-0.149,0-0.287,0.039-0.434,0.044c5.839,0.233,10.51,5.005,10.51,10.901
	c0,6.044-4.9,10.945-10.944,10.945c-5.896,0-10.668-4.672-10.901-10.51c-0.005,0.148-0.044,0.286-0.044,0.434
	c0,6.524,5.289,11.813,11.813,11.813c6.524,0,11.813-5.289,11.813-11.813C296.599,248.627,291.309,243.338,284.786,243.338z"/>
<circle style="fill:#EBF0F3;" cx="166.492" cy="288.051" r="11.812"/>
<path style="fill:#D5D6DB;" d="M166.492,276.234c-0.149,0-0.287,0.039-0.434,0.044c5.839,0.233,10.51,5.004,10.51,10.901
	c0,6.044-4.9,10.944-10.944,10.944c-5.896,0-10.668-4.672-10.901-10.51c-0.005,0.148-0.044,0.286-0.044,0.434
	c0,6.524,5.289,11.813,11.813,11.813c6.524,0,11.813-5.289,11.813-11.813C178.305,281.523,173.015,276.234,166.492,276.234z"/>
<circle style="fill:#EBF0F3;" cx="205.926" cy="288.051" r="11.812"/>
<path style="fill:#D5D6DB;" d="M205.923,276.234c-0.149,0-0.287,0.039-0.434,0.044c5.839,0.233,10.51,5.004,10.51,10.901
	c0,6.044-4.9,10.944-10.944,10.944c-5.896,0-10.668-4.672-10.901-10.51c-0.005,0.148-0.044,0.286-0.044,0.434
	c0,6.524,5.289,11.813,11.813,11.813c6.524,0,11.813-5.289,11.813-11.813C217.736,281.523,212.447,276.234,205.923,276.234z"/>
<circle style="fill:#EBF0F3;" cx="245.356" cy="288.051" r="11.812"/>
<path style="fill:#D5D6DB;" d="M245.354,276.234c-0.149,0-0.287,0.039-0.434,0.044c5.839,0.233,10.51,5.004,10.51,10.901
	c0,6.044-4.9,10.944-10.944,10.944c-5.896,0-10.668-4.672-10.901-10.51c-0.005,0.148-0.044,0.286-0.044,0.434
	c0,6.524,5.289,11.813,11.813,11.813c6.524,0,11.813-5.289,11.813-11.813C257.167,281.523,251.878,276.234,245.354,276.234z"/>
<circle style="fill:#44C4A1;" cx="284.774" cy="288.051" r="11.812"/>
<path style="fill:#3EA69B;" d="M284.786,276.234c-0.149,0-0.287,0.039-0.434,0.044c5.839,0.233,10.51,5.004,10.51,10.901
	c0,6.044-4.9,10.944-10.944,10.944c-5.896,0-10.668-4.672-10.901-10.51c-0.005,0.148-0.044,0.286-0.044,0.434
	c0,6.524,5.289,11.813,11.813,11.813c6.524,0,11.813-5.289,11.813-11.813C296.599,281.523,291.309,276.234,284.786,276.234z"/>
<circle style="fill:#EBF0F3;" cx="166.492" cy="320.922" r="11.812"/>
<path style="fill:#D5D6DB;" d="M166.492,309.13c-0.149,0-0.287,0.039-0.434,0.044c5.839,0.233,10.51,5.005,10.51,10.901
	c0,6.044-4.9,10.944-10.944,10.944c-5.896,0-10.668-4.672-10.901-10.51c-0.005,0.147-0.044,0.285-0.044,0.434
	c0,6.524,5.289,11.813,11.813,11.813c6.524,0,11.813-5.289,11.813-11.813C178.305,314.419,173.015,309.13,166.492,309.13z"/>
<circle style="fill:#EBF0F3;" cx="205.926" cy="320.922" r="11.812"/>
<path style="fill:#D5D6DB;" d="M205.923,309.13c-0.149,0-0.287,0.039-0.434,0.044c5.839,0.233,10.51,5.005,10.51,10.901
	c0,6.044-4.9,10.944-10.944,10.944c-5.896,0-10.668-4.672-10.901-10.51c-0.005,0.147-0.044,0.285-0.044,0.434
	c0,6.524,5.289,11.813,11.813,11.813c6.524,0,11.813-5.289,11.813-11.813C217.736,314.419,212.447,309.13,205.923,309.13z"/>
<circle style="fill:#EBF0F3;" cx="245.356" cy="320.922" r="11.812"/>
<path style="fill:#D5D6DB;" d="M245.354,309.13c-0.149,0-0.287,0.039-0.434,0.044c5.839,0.233,10.51,5.005,10.51,10.901
	c0,6.044-4.9,10.944-10.944,10.944c-5.896,0-10.668-4.672-10.901-10.51c-0.005,0.147-0.044,0.285-0.044,0.434
	c0,6.524,5.289,11.813,11.813,11.813c6.524,0,11.813-5.289,11.813-11.813C257.167,314.419,251.878,309.13,245.354,309.13z"/>
<circle style="fill:#27A2DB;" cx="284.774" cy="320.922" r="11.812"/>
<path style="fill:#2D93BA;" d="M284.786,309.13c-0.149,0-0.287,0.039-0.434,0.044c5.839,0.233,10.51,5.005,10.51,10.901
	c0,6.044-4.9,10.944-10.944,10.944c-5.896,0-10.668-4.672-10.901-10.51c-0.005,0.147-0.044,0.285-0.044,0.434
	c0,6.524,5.289,11.813,11.813,11.813c6.524,0,11.813-5.289,11.813-11.813C296.599,314.419,291.309,309.13,284.786,309.13z"/>
</svg>